<?xml version="1.0" encoding="UTF-8" standalone="no"?>
<!-- Created with Inkscape (http://www.inkscape.org/) -->

<svg
   width="967.55908"
   height="967.55908"
   viewBox="0 0 256.00001 256.00001"
   version="1.1"
   id="svg1"
   inkscape:version="1.3.2 (091e20e, 2023-11-25, custom)"
   sodipodi:docname="bannerbun.svg"
   xmlns:inkscape="http://www.inkscape.org/namespaces/inkscape"
   xmlns:sodipodi="http://sodipodi.sourceforge.net/DTD/sodipodi-0.dtd"
   xmlns:xlink="http://www.w3.org/1999/xlink"
   xmlns="http://www.w3.org/2000/svg"
   xmlns:svg="http://www.w3.org/2000/svg">
  <sodipodi:namedview
     id="namedview1"
     pagecolor="#ffffff"
     bordercolor="#000000"
     borderopacity="0.25"
     inkscape:showpageshadow="2"
     inkscape:pageopacity="0.0"
     inkscape:pagecheckerboard="0"
     inkscape:deskcolor="#d1d1d1"
     inkscape:document-units="px"
     inkscape:zoom="0.49575348"
     inkscape:cx="511.34286"
     inkscape:cy="539.5827"
     inkscape:window-width="1920"
     inkscape:window-height="1001"
     inkscape:window-x="-9"
     inkscape:window-y="1410"
     inkscape:window-maximized="1"
     inkscape:current-layer="layer1" />
  <defs
     id="defs1">
    <linearGradient
       id="linearGradient8"
       inkscape:collect="always">
      <stop
         style="stop-color:#0c13be;stop-opacity:1;"
         offset="0"
         id="stop8" />
      <stop
         style="stop-color:#d21560;stop-opacity:1;"
         offset="1"
         id="stop9" />
    </linearGradient>
    <linearGradient
       inkscape:collect="always"
       xlink:href="#linearGradient8"
       id="linearGradient10"
       gradientUnits="userSpaceOnUse"
       x1="10.673988"
       y1="18.145781"
       x2="250.83871"
       y2="242.29953" />
    <linearGradient
       inkscape:collect="always"
       xlink:href="#linearGradient8"
       id="linearGradient11"
       gradientUnits="userSpaceOnUse"
       x1="10.673988"
       y1="18.145781"
       x2="250.83871"
       y2="242.29953" />
    <linearGradient
       inkscape:collect="always"
       xlink:href="#linearGradient8"
       id="linearGradient12"
       gradientUnits="userSpaceOnUse"
       x1="10.673988"
       y1="18.145781"
       x2="250.83871"
       y2="242.29953" />
    <linearGradient
       inkscape:collect="always"
       xlink:href="#linearGradient8"
       id="linearGradient13"
       gradientUnits="userSpaceOnUse"
       x1="10.673988"
       y1="18.145781"
       x2="250.83871"
       y2="242.29953" />
    <linearGradient
       inkscape:collect="always"
       xlink:href="#linearGradient8"
       id="linearGradient14"
       gradientUnits="userSpaceOnUse"
       x1="10.673988"
       y1="18.145781"
       x2="250.83871"
       y2="242.29953" />
    <linearGradient
       inkscape:collect="always"
       xlink:href="#linearGradient8"
       id="linearGradient15"
       gradientUnits="userSpaceOnUse"
       x1="10.673988"
       y1="18.145781"
       x2="250.83871"
       y2="242.29953" />
    <linearGradient
       inkscape:collect="always"
       xlink:href="#linearGradient8"
       id="linearGradient16"
       gradientUnits="userSpaceOnUse"
       x1="10.673988"
       y1="18.145781"
       x2="250.83871"
       y2="242.29953" />
  </defs>
  <g
     inkscape:label="Layer 1"
     inkscape:groupmode="layer"
     id="layer1">
    <g
       id="g5"
       transform="rotate(-108.05562,123.63679,121.28858)"
       style="fill:url(#linearGradient13);fill-opacity:1">
      <path
         id="rect1"
         style="font-variation-settings:'wght' 800;fill:url(#linearGradient10);fill-opacity:1;stroke-width:0.5421;stroke-linecap:round;stroke-linejoin:round;stroke-miterlimit:0"
         d="m 129.86797,58.615798 -8e-5,141.787312 h 13.7418 l 2.7e-4,-135.054259 h 36.82773 l -2e-4,-6.733053 z"
         transform="matrix(1,0,-0.30342338,0.95285584,0,0)" />
      <rect
         style="font-variation-settings:'wght' 800;fill:url(#linearGradient11);fill-opacity:1;stroke-width:0.5421;stroke-linecap:round;stroke-linejoin:round;stroke-miterlimit:0"
         id="rect3"
         width="50.569248"
         height="141.78737"
         x="146.77963"
         y="68.022301"
         transform="matrix(1,0,-0.30342338,0.95285584,0,0)" />
      <path
         id="path5"
         style="font-variation-settings:'wght' 800;fill:url(#linearGradient12);fill-opacity:1;stroke-width:0.529167;stroke-linecap:round;stroke-linejoin:round;stroke-miterlimit:0"
         d="M 98.119415,46.795226 55.09775,181.89809 h 13.7418 L 109.81844,53.210855 h 36.82773 l 2.04277,-6.415629 z" />
    </g>
    <g
       id="g7"
       transform="rotate(-90,130.86904,129.14213)"
       style="fill:url(#linearGradient16);fill-opacity:1">
      <path
         id="path6"
         style="font-variation-settings:'wght' 800;fill:url(#linearGradient14);fill-opacity:1;stroke-width:0.529167;stroke-linecap:round;stroke-linejoin:round;stroke-miterlimit:0"
         d="M 74.537534,24.880625 A 53.369942,101.41227 0 0 0 28.987488,78.317523 53.369942,101.41227 0 0 0 30.75494,179.98295 53.369942,101.41227 0 0 0 78.061488,227.59124 L 77.655737,204.25501 A 78.066582,31.196384 89.417717 0 1 49.989709,166.98269 78.066582,31.196384 89.417717 0 1 48.576285,88.704422 78.066582,31.196384 89.417717 0 1 74.94293,48.199195 Z" />
      <path
         id="path7"
         style="font-variation-settings:'wght' 800;fill:url(#linearGradient15);fill-opacity:1;stroke-width:0.529167;stroke-linecap:round;stroke-linejoin:round;stroke-miterlimit:0"
         d="m 189.48482,24.880625 a 53.369942,101.41227 0 0 1 45.55004,53.436898 53.369942,101.41227 0 0 1 -1.76745,101.665427 53.369942,101.41227 0 0 1 -47.30655,47.60829 l 0.40575,-23.33623 a 31.196384,78.066582 0.582283 0 0 27.66603,-37.27232 31.196384,78.066582 0.582283 0 0 1.41343,-78.278268 31.196384,78.066582 0.582283 0 0 -26.36665,-40.505227 z" />
    </g>
  </g>
</svg>
